<svg xmlns="http://www.w3.org/2000/svg" width="167" height="36" viewBox="0 0 167 36" fill="none"><path d="M63.8852 20.871C63.8852 23.9235 60.9551 25.071 56.0893 25.071C54.1916 25.071 51.8004 24.9735 49.5839 24.6885C49.4245 24.666 49.303 24.531 49.303 24.366V23.271C49.303 22.326 50.1228 21.5835 51.0717 21.666C52.9163 21.831 54.5256 21.906 56.0437 21.906C58.2603 21.906 60.0897 21.696 60.0897 20.286V19.371C60.0897 18.4035 59.6646 18.3285 57.524 17.8035L52.9239 16.7085C50.7301 16.1835 49.2499 15.246 49.2499 12.636V10.941C49.2499 7.85851 52.476 6.74101 57.152 6.74101C59.2395 6.74101 61.0537 6.83851 63.4297 7.24351C63.5891 7.27351 63.703 7.40851 63.703 7.56601V8.54101C63.703 9.50101 62.8604 10.236 61.8963 10.1385C60.2112 9.96601 58.8372 9.90601 57.2507 9.90601C54.8216 9.90601 53.0453 10.086 53.0453 11.496V12.201C53.0453 13.221 53.683 13.4535 56.2183 14.0835L60.2339 15.051C62.534 15.621 63.8776 16.3335 63.8776 18.966V20.871H63.8852Z" fill="white"></path><path d="M95.0382 16.506C95.0382 14.391 93.5352 14.106 91.4174 14.106C88.9883 14.106 88.1381 14.496 87.4246 15.9585V23.2785C87.4246 24.171 86.6958 24.891 85.7925 24.891H83.9707C83.7885 24.891 83.6443 24.7485 83.6443 24.5685V12.7935C83.6443 11.9085 84.373 11.181 85.2763 11.181H86.7186C86.8856 11.181 87.0222 11.301 87.045 11.466L87.25 13.1385H87.4094C88.047 11.496 90.1345 10.9185 93.0115 10.9185C96.3439 10.9185 98.8261 11.9085 98.8261 14.781V23.2785C98.8261 24.171 98.0974 24.891 97.194 24.891H95.3722C95.1901 24.891 95.0458 24.7485 95.0458 24.5685V16.506H95.0382Z" fill="white"></path><path d="M107.996 18.7935L107.176 18.861C106.334 18.9285 105.688 19.626 105.688 20.466V23.2785C105.688 24.1635 104.96 24.891 104.056 24.891H102.234C102.052 24.891 101.908 24.7485 101.908 24.5685V7.64852C101.908 6.76352 102.637 6.04352 103.54 6.04352H105.362C105.544 6.04352 105.688 6.18602 105.688 6.36602V15.456C105.688 15.6435 105.855 15.7935 106.045 15.7785L108.474 15.5535C108.672 15.5385 108.854 15.4485 108.99 15.306L112.475 11.691C112.786 11.376 113.211 11.1885 113.651 11.1885H116.407C116.695 11.1885 116.839 11.526 116.642 11.7285L111.526 17.1135L117.097 24.3735C117.257 24.5835 117.105 24.891 116.839 24.891H114.091C113.59 24.891 113.12 24.666 112.809 24.276L108.709 19.101C108.535 18.8835 108.269 18.771 107.996 18.7935Z" fill="white"></path><path d="M130.465 16.506C130.465 14.391 129.008 14.106 126.844 14.106C124.415 14.106 123.565 14.496 122.851 15.9585V23.2785C122.851 24.171 122.123 24.891 121.219 24.891H119.397C119.215 24.891 119.071 24.7485 119.071 24.5685V7.64851C119.071 6.75601 119.8 6.03601 120.703 6.03601H122.525C122.707 6.03601 122.851 6.17851 122.851 6.35851V10.9185L122.669 13.1385H122.829C123.466 11.496 125.554 10.9185 128.431 10.9185C131.763 10.9185 134.245 11.9085 134.245 14.781V23.2785C134.245 24.171 133.517 24.891 132.613 24.891H130.791C130.609 24.891 130.465 24.7485 130.465 24.5685V16.506Z" fill="white"></path><path d="M141.305 25.6185L135.498 11.631C135.407 11.421 135.566 11.1885 135.801 11.1885H138.147C138.815 11.1885 139.415 11.5935 139.665 12.2085L143.37 21.501L146.945 12.2235C147.188 11.601 147.787 11.1885 148.471 11.1885H150.763C150.991 11.1885 151.15 11.4135 151.067 11.6235L144.22 29.2935C143.977 29.916 143.377 30.3285 142.702 30.3285H140.432C140.204 30.3285 140.045 30.1035 140.128 29.8935L141.32 26.811C141.464 26.421 141.464 25.9935 141.305 25.6185Z" fill="white"></path><path d="M163.167 22.881H163.007C162.423 24.4485 160.335 25.071 157.511 25.071C154.263 25.071 151.78 24.0285 151.78 21.1785C151.78 17.6385 153.708 16.8735 157.534 16.7685C159.675 16.7085 160.715 16.821 163.015 17.0235V16.0335C163.015 14.7285 161.876 13.971 158.149 13.971C156.805 13.971 155.204 14.061 153.283 14.2935C153.086 14.316 152.911 14.166 152.911 13.9785V12.7935C152.911 11.9835 153.526 11.2935 154.346 11.196C156.107 10.986 157.701 10.926 159.31 10.926C164.229 10.926 166.788 12.051 166.788 15.231V23.2785C166.788 24.171 166.059 24.891 165.155 24.891H163.69C163.523 24.891 163.387 24.771 163.364 24.606L163.167 22.881ZM163.007 19.4085C161.762 19.251 160.335 19.1235 159.31 19.1235C156.935 19.1235 155.583 19.3335 155.583 20.7435C155.583 22.0485 157.117 22.2285 158.969 22.2285C161.087 22.2285 162.218 21.8085 163.015 20.766V19.4085H163.007Z" fill="white"></path><path d="M77.0478 22.881H76.8884C76.3039 24.4485 74.2164 25.071 71.3926 25.071C68.1436 25.071 65.6614 24.0285 65.6614 21.1785C65.6614 17.6385 67.5895 16.8735 71.4153 16.7685C73.556 16.7085 74.5959 16.821 76.896 17.0235V16.0335C76.896 14.7285 75.7573 13.971 72.0302 13.971C70.6866 13.971 69.0849 14.061 67.1644 14.2935C66.9671 14.316 66.7925 14.166 66.7925 13.9785V12.7935C66.7925 11.9835 67.4073 11.2935 68.2271 11.196C69.9882 10.986 71.5823 10.926 73.1916 10.926C78.1105 10.926 80.6686 12.051 80.6686 15.231V23.2785C80.6686 24.171 79.9399 24.891 79.0366 24.891H77.5716C77.4046 24.891 77.2679 24.771 77.2451 24.606L77.0478 22.881ZM76.8884 19.4085C75.6435 19.251 74.2164 19.1235 73.1916 19.1235C70.8156 19.1235 69.4645 19.3335 69.4645 20.7435C69.4645 22.0485 70.9978 22.2285 72.85 22.2285C74.9679 22.2285 76.0989 21.8085 76.896 20.766V19.4085H76.8884Z" fill="white"></path><path d="M6.24315 27.2153L12.7507 20.7964C13.3627 20.1927 13.7059 19.3756 13.7059 18.5217V13.4719C13.7059 11.1237 14.6537 8.87112 16.3329 7.20748L18.9299 4.63841C19.1538 4.41757 18.9523 4.03479 18.6389 4.09368C17.8478 4.23355 17.0567 4.41019 16.2582 4.6163C5.49687 7.45775 -1.60771 15.695 0.377391 23.0047C0.80277 24.58 1.62368 25.986 2.75056 27.1859C3.68341 28.1797 5.28045 28.1723 6.24315 27.2153Z" fill="#66CB66"></path><path d="M33.4824 8.49566L28.3554 13.5528C27.7435 14.1565 27.4002 14.9736 27.4002 15.8275V20.8773C27.4002 23.2255 26.4524 25.4781 24.7733 27.1417L20.7956 31.0726C20.5717 31.2934 20.7732 31.6763 21.0867 31.6174C21.8777 31.4775 22.6688 31.3008 23.4673 31.0947C34.2287 28.2533 41.3332 20.016 39.3481 12.7063C38.9228 11.131 38.1019 9.72498 36.9824 8.52509C36.0421 7.53132 34.4451 7.5387 33.4824 8.49566Z" fill="#66CB66"></path><path d="M27.945 1.45101L19.2284 10.0489C18.3105 10.9544 17.7956 12.1837 17.7956 13.4646V20.5167C17.7956 21.1571 17.5344 21.7754 17.0791 22.2245L5.61628 33.5314C5.4521 33.6933 5.50434 33.9657 5.7133 34.054C6.60137 34.4442 7.54168 34.7754 8.52677 35.0625C9.68351 35.3938 10.9373 35.0993 11.788 34.2601L21.8852 24.3004C22.8031 23.3949 23.318 22.1656 23.318 20.8847V13.8326C23.318 13.1922 23.5792 12.5739 24.0345 12.1248L34.1167 2.17977C34.2809 2.01782 34.2286 1.74548 34.0197 1.65715C33.1316 1.267 32.1913 0.935758 31.2062 0.656031C30.0495 0.310052 28.7957 0.611831 27.945 1.45101Z" fill="#66CB66"></path></svg>