<?xml version="1.0" encoding="utf-8"?>
<!-- Generator: Adobe Illustrator 26.2.1, SVG Export Plug-In . SVG Version: 6.00 Build 0)  -->
<svg version="1.1" xmlns="http://www.w3.org/2000/svg" xmlns:xlink="http://www.w3.org/1999/xlink" x="0px" y="0px"
	 viewBox="0 0 743.7 147.4" style="enable-background:new 0 0 743.7 147.4;" xml:space="preserve">
<style type="text/css">
	.st0{fill:#FFFFFF;}
	.st1{fill:#89CFE5;}
	.st2{fill:#FFDD00;}
</style>
<g id="Camada_2">
</g>
<g id="a">
	<g>
		<path class="st0" d="M738,0.2c5.9-0.2,6.2-1.7,5.3,6.1c-2.9,26.5-5.6,53-8.4,79.5c-2,19.4-4.1,38.8-6.1,58.3
			c-0.3,2.6-1.3,3.5-3.8,3.2c-0.8-0.1-1.7,0-2.5,0c-116.6,0-233.2,0-349.8,0.1c-5.1,0-6.2-1.3-6.2-6.3c0.2-41.8,0.2-83.5,0-125.2
			c0-4.1,0.7-5.7,5.3-5.8C427,8.9,677.3,1.9,738,0.2z M514.9,130c28.4-0.1,48.7-21.3,48.9-51.1C564,49.4,543.4,28,514.9,28
			c-28.7,0-49,20.9-49.2,50.7C465.6,108.4,486.2,130,514.9,130z M568.5,109c0,5.6,0.1,11.3,0,16.9c-0.1,3,1,4.1,4,4.1
			c10.8-0.1,21.6,0.1,32.3-1.6c21.4-3.5,35.2-15.4,39.8-34.5c1.7-7.2,1.8-14.4,1.3-21.7c-1.5-21-12.8-35.2-32.6-41
			c-13.8-4-28-3.1-42.1-3.2c-2.7,0-2.8,1.8-2.8,3.7c0,11.3,0,22.5,0,33.8c0,2.4,0.6,3.7,3.3,3.6c4.3-0.2,8.7-0.2,13,0
			c2.7,0.1,3.4-0.9,3.4-3.5c-0.2-5.3,0-10.6,0-15.9c0-1.5,0-2.7,2.2-3.1c12.4-2.2,28.3,5.3,33.1,16.4c4.7,10.8,4.7,22-0.3,32.7
			c-4.8,10.4-22.1,18.3-33.1,15.7c-2.3-0.5-1.8-2-1.9-3.4c0-5.3-0.1-10.6,0-15.9c0.1-2.5-0.6-3.6-3.3-3.5c-4.3,0.2-8.7,0.2-13,0
			c-2.7-0.1-3.4,1-3.4,3.5C568.6,97.8,568.5,103.4,568.5,109L568.5,109z M461.7,48.8c0-5.8-0.1-11.6,0-17.4c0-2.5-0.7-3.6-3.4-3.5
			c-10.5,0.2-21-0.5-31.4,1.1c-19,2.9-34,11.3-40.2,30.8c-2.8,8.8-3.1,18-2.1,27.1c2,19,11.8,32.2,30.3,38.7
			c10.5,3.7,21.4,4.2,32.5,4.2c14.7-0.1,14.6,0,14.3-14.6c-0.1-3-0.9-4-4-3.9c-7.1,0.2-14.3,0.4-21.5,0
			c-11.5-0.6-22.6-3.1-28.4-14.3c-6.3-12.2-6.5-25.1,0.8-37c6.8-11.2,18.3-13.3,30.4-13.4c2.8,0,3.3,1.1,3.3,3.6
			c-0.1,5.1,0.1,10.3-0.1,15.4c-0.1,2.5,0.5,3.6,3.3,3.5c4.1-0.2,8.3-0.2,12.5,0c2.9,0.1,3.7-1,3.6-3.8
			C461.6,59.8,461.7,54.3,461.7,48.8L461.7,48.8z M680.8,27.9c-8.8,0-17.6,0.1-26.4-0.1c-3.1-0.1-4.6,0.6-4.3,4
			c0.3,3.8,0.3,7.6,0,11.4c-0.2,3.3,0.9,4.2,4.2,4.2c17.6-0.1,35.2-0.1,52.8,0c3,0,4.2-0.7,4-3.8c-0.3-4-0.3-8,0-11.9
			c0.2-3.1-0.8-4-3.9-3.9C698.3,28.1,689.5,28,680.8,27.9L680.8,27.9z M681,110.5c-5.2,0-10.3-0.1-15.4,0c-5,0.1-11.6-2.1-14.4,0.8
			c-3.2,3.4-0.7,10.1-1.1,15.3c-0.2,2.5,0.7,3.5,3.3,3.5c18.1-0.1,36.2-0.1,54.3,0c2.8,0,3.4-1.1,3.3-3.6c-0.2-4-0.2-7.9,0-11.9
			c0.2-3.2-0.7-4.3-4.1-4.2C698.3,110.6,689.7,110.5,681,110.5L681,110.5z M680.5,88.6c1.3,0,2.7,0,4,0c4.8-0.1,11.4,1.7,13.9-0.8
			c3.2-3.1,0.7-9.7,1.1-14.8c0.3-3.4-1.2-4.2-4.3-4.1c-9.8,0.2-19.6,0.2-29.3,0c-2.9,0-4.3,0.6-4.1,3.8c0.2,3.9,0.2,7.9,0,11.9
			c-0.2,2.9,0.6,4.2,3.8,4C670.6,88.4,675.5,88.6,680.5,88.6L680.5,88.6z"/>
		<path class="st0" d="M485.1,80.1c0-16.9,8.4-29.7,21.4-33.1c18.5-4.9,35.3,6.6,37.7,25.9c0.8,6.1,0.6,12.2-1.3,18.2
			c-4.4,13.9-16.7,22.5-30.1,21.1c-15.5-1.6-26.1-12.3-27.5-27.9C485.2,82.6,485.1,80.9,485.1,80.1L485.1,80.1z M514.7,69.7
			c-5.3,0-9.4,4.1-9.4,9.4c0,5.3,4,9.5,9.3,9.6c5.4,0.1,9.8-4.3,9.7-9.7C524.1,73.7,519.9,69.6,514.7,69.7z"/>
	</g>
	<path class="st1" d="M74,76.9c0.6-16.9,7.1-33.2,24.3-44.1c31.9-20.2,75.1-3.7,83.5,31.8c3.3,13.8,2.1,27.3-4.1,40.2
		c-9.6,19.7-29.9,30.3-52.9,28.8C92.1,131.4,74.2,106.9,74,76.9z M95.6,80.1c-0.2,3.9,0.8,8.5,2.4,13c4.7,13.1,15.6,20.9,29.8,21.3
		c14.1,0.4,25.5-6.5,31-19.1c4-9.1,4.3-18.5,1.6-27.9c-3.9-13.7-14.9-22.5-28.8-23.5c-14.1-1-26.1,5.6-32,17.7
		C96.9,67.2,95.5,73.1,95.6,80.1L95.6,80.1z"/>
	<path class="st1" d="M274.3,64.2c0,10.9,0,21.8,0,32.7c-0.1,19.3-13.5,33.6-33.7,36.1c-11.1,1.4-21.9,0.5-32-4.6
		c-12.1-6.2-19.2-15.9-19.5-29.1c-0.4-17.5-0.1-34.9-0.2-52.4c0-2,0.8-2.7,2.8-2.7c5.1,0.1,10.1,0.2,15.1,0c3-0.1,3.7,0.9,3.7,3.6
		c-0.1,15.2-0.1,30.5-0.1,45.7c0,9.6,4,15.4,12.7,18.5c8.9,3.2,20.4,0.8,25.9-5.3c2.9-3.2,3.6-7.1,3.6-11.2c0-22,0-44.1,0-66.2
		c0-3.3,1.8-4.9,5.3-4.9c4.1,0,8.1,0.1,12.2,0c3-0.1,4.1,0.8,4,3.8C274.2,40.3,274.3,52.3,274.3,64.2L274.3,64.2z"/>
	<path class="st1" d="M35.1,123.6c0-0.6,0-1.2,0-1.8c0-2.2-0.5-4.6,0.2-6.6c0.9-2.5,4-1.4,6.1-2.3c5.1-2.2,8.2-6.4,8-11.6
		c-0.2-5.4-4.4-10.2-10.4-11.9c-4.5-1.3-9.3-0.7-13.8-2C12.6,83.8,2.9,77.1,0.6,64.2c-5-28.8,20.1-42.9,42-38.9
		c15.6,2.8,25.5,13,27.3,27.2c0.4,3.1-0.2,4.6-3.9,4.4c-4.4-0.3-8.9-0.1-13.3,0c-2.3,0-3.5-0.5-3.9-3c-1.2-6.6-7.5-10.3-15.4-9.5
		c-7.9,0.8-12.8,6.1-12.4,13.6c0.3,6.3,5.5,11.1,12.7,11.3c10.7,0.4,20.6,2.8,28,10.6c9.3,9.6,10.9,21.2,6.7,33.1
		c-4.1,11.8-13.8,18-26.3,20c-8,1.3-7.1,1.7-7.1-5.9C35.1,125.9,35.1,124.7,35.1,123.6L35.1,123.6z"/>
	<path class="st1" d="M278.5,58.8c0-10.2,0.1-20.4-0.1-30.6c0-2.8,1-3.7,3.8-3.6c4.9,0.2,9.9,0.1,14.8,0c2.4-0.1,3.2,0.8,3.2,3.1
		c-0.1,20.6-0.1,41.3,0,61.9c0,2.4-0.9,3-3.3,2.9c-4.9-0.1-9.9-0.2-14.8,0c-3.3,0.2-3.9-1.1-3.8-3.8
		C278.6,78.7,278.5,68.8,278.5,58.8L278.5,58.8z"/>
	<path class="st1" d="M310,113.1c9.1,0,18.2,0.1,27.4-0.1c3.2-0.1,4.5,0.9,4.3,4.1c-0.2,4.3-0.1,8.7,0,13c0.1,2.5-0.8,3.6-3.6,3.6
		c-18.6-0.1-37.2-0.1-55.8,0c-2.6,0-3.9-0.7-3.8-3.4c0.2-4.7,0.2-9.4,0-14.1c-0.1-2.5,0.9-3.2,3.5-3.2
		C291.3,113.2,300.6,113.2,310,113.1L310,113.1z"/>
	<path class="st1" d="M139.6,79.2c0,5.8-4.6,10.2-10.7,10.2c-6,0-10.7-4.6-10.7-10.2c0-5.7,4.9-10.2,10.8-10.2
		C135.1,68.9,139.6,73.3,139.6,79.2L139.6,79.2z"/>
	<g>
		<path class="st2" d="M738,0.2c5.9-0.2,6.2-1.7,5.3,6.1c-2.9,26.5-5.6,53-8.4,79.5c-2,19.4-4.1,38.8-6.1,58.3
			c-0.3,2.6-1.3,3.5-3.8,3.2c-0.8-0.1-1.7,0-2.5,0c-116.6,0-233.2,0-349.8,0.1c-5.1,0-6.2-1.3-6.2-6.3c0.2-41.8,0.2-83.5,0-125.2
			c0-4.1,0.7-5.7,5.3-5.8C427,8.9,677.3,1.9,738,0.2z M514.9,130c28.4-0.1,48.7-21.3,48.9-51.1C564,49.4,543.4,28,514.9,28
			c-28.7,0-49,20.9-49.2,50.7C465.6,108.4,486.2,130,514.9,130z M568.5,109c0,5.6,0.1,11.3,0,16.9c-0.1,3,1,4.1,4,4.1
			c10.8-0.1,21.6,0.1,32.3-1.6c21.4-3.5,35.2-15.4,39.8-34.5c1.7-7.2,1.8-14.4,1.3-21.7c-1.5-21-12.8-35.2-32.6-41
			c-13.8-4-28-3.1-42.1-3.2c-2.7,0-2.8,1.8-2.8,3.7c0,11.3,0,22.5,0,33.8c0,2.4,0.6,3.7,3.3,3.6c4.3-0.2,8.7-0.2,13,0
			c2.7,0.1,3.4-0.9,3.4-3.5c-0.2-5.3,0-10.6,0-15.9c0-1.5,0-2.7,2.2-3.1c12.4-2.2,28.3,5.3,33.1,16.4c4.7,10.8,4.7,22-0.3,32.7
			c-4.8,10.4-22.1,18.3-33.1,15.7c-2.3-0.5-1.8-2-1.9-3.4c0-5.3-0.1-10.6,0-15.9c0.1-2.5-0.6-3.6-3.3-3.5c-4.3,0.2-8.7,0.2-13,0
			c-2.7-0.1-3.4,1-3.4,3.5C568.6,97.8,568.5,103.4,568.5,109L568.5,109z M461.7,48.8c0-5.8-0.1-11.6,0-17.4c0-2.5-0.7-3.6-3.4-3.5
			c-10.5,0.2-21-0.5-31.4,1.1c-19,2.9-34,11.3-40.2,30.8c-2.8,8.8-3.1,18-2.1,27.1c2,19,11.8,32.2,30.3,38.7
			c10.5,3.7,21.4,4.2,32.5,4.2c14.7-0.1,14.6,0,14.3-14.6c-0.1-3-0.9-4-4-3.9c-7.1,0.2-14.3,0.4-21.5,0
			c-11.5-0.6-22.6-3.1-28.4-14.3c-6.3-12.2-6.5-25.1,0.8-37c6.8-11.2,18.3-13.3,30.4-13.4c2.8,0,3.3,1.1,3.3,3.6
			c-0.1,5.1,0.1,10.3-0.1,15.4c-0.1,2.5,0.5,3.6,3.3,3.5c4.1-0.2,8.3-0.2,12.5,0c2.9,0.1,3.7-1,3.6-3.8
			C461.6,59.8,461.7,54.3,461.7,48.8L461.7,48.8z M680.8,27.9c-8.8,0-17.6,0.1-26.4-0.1c-3.1-0.1-4.6,0.6-4.3,4
			c0.3,3.8,0.3,7.6,0,11.4c-0.2,3.3,0.9,4.2,4.2,4.2c17.6-0.1,35.2-0.1,52.8,0c3,0,4.2-0.7,4-3.8c-0.3-4-0.3-8,0-11.9
			c0.2-3.1-0.8-4-3.9-3.9C698.3,28.1,689.5,28,680.8,27.9L680.8,27.9z M681,110.5c-5.2,0-10.3-0.1-15.4,0c-5,0.1-11.6-2.1-14.4,0.8
			c-3.2,3.4-0.7,10.1-1.1,15.3c-0.2,2.5,0.7,3.5,3.3,3.5c18.1-0.1,36.2-0.1,54.3,0c2.8,0,3.4-1.1,3.3-3.6c-0.2-4-0.2-7.9,0-11.9
			c0.2-3.2-0.7-4.3-4.1-4.2C698.3,110.6,689.7,110.5,681,110.5L681,110.5z M680.5,88.6c1.3,0,2.7,0,4,0c4.8-0.1,11.4,1.7,13.9-0.8
			c3.2-3.1,0.7-9.7,1.1-14.8c0.3-3.4-1.2-4.2-4.3-4.1c-9.8,0.2-19.6,0.2-29.3,0c-2.9,0-4.3,0.6-4.1,3.8c0.2,3.9,0.2,7.9,0,11.9
			c-0.2,2.9,0.6,4.2,3.8,4C670.6,88.4,675.5,88.6,680.5,88.6L680.5,88.6z"/>
		<path class="st2" d="M485.1,80.1c0-16.9,8.4-29.7,21.4-33.1c18.5-4.9,35.3,6.6,37.7,25.9c0.8,6.1,0.6,12.2-1.3,18.2
			c-4.4,13.9-16.7,22.5-30.1,21.1c-15.5-1.6-26.1-12.3-27.5-27.9C485.2,82.6,485.1,80.9,485.1,80.1L485.1,80.1z M514.7,69.7
			c-5.3,0-9.4,4.1-9.4,9.4c0,5.3,4,9.5,9.3,9.6c5.4,0.1,9.8-4.3,9.7-9.7C524.1,73.7,519.9,69.6,514.7,69.7z"/>
	</g>
</g>
</svg>
